<svg width="45" height="46" viewBox="0 0 45 46" fill="none" xmlns="http://www.w3.org/2000/svg">
<path d="M16.0721 22.8872C17.6617 22.8872 19.2156 22.4158 20.5372 21.5326C21.8589 20.6495 22.889 19.3942 23.4972 17.9256C24.1055 16.457 24.2645 14.841 23.9543 13.282C23.6441 11.723 22.8785 10.291 21.7544 9.16713C20.6303 8.04323 19.1982 7.27792 17.6391 6.96798C16.0801 6.65804 14.4641 6.81739 12.9956 7.42589C11.5271 8.03438 10.2721 9.06469 9.38915 10.3865C8.50623 11.7083 8.03512 13.2623 8.0354 14.8518C8.03763 16.9825 8.88512 19.0252 10.3919 20.5317C11.8986 22.0382 13.9415 22.8853 16.0721 22.8872Z" fill="#FFD215"/>
<path d="M26.5852 29.526C24.5487 27.4372 21.9357 26.0028 19.0801 25.4061C16.2244 24.8095 13.2558 25.0776 10.5532 26.1762C7.85071 27.2749 5.53705 29.1542 3.90777 31.5742C2.27849 33.9941 1.40757 36.8448 1.40625 39.7621C1.40625 40.1351 1.55441 40.4928 1.81813 40.7565C2.08185 41.0202 2.43954 41.1684 2.8125 41.1684H29.3344C29.7073 41.1684 30.065 41.0202 30.3287 40.7565C30.5925 40.4928 30.7406 40.1351 30.7406 39.7621C30.7461 38.271 30.5159 36.7883 30.0586 35.369C29.3777 33.1747 28.1875 31.1726 26.5852 29.526Z" fill="#FFD215"/>
<path d="M33.0469 23.5903C36.3476 23.5903 39.0234 20.9145 39.0234 17.6138C39.0234 14.313 36.3476 11.6372 33.0469 11.6372C29.7461 11.6372 27.0703 14.313 27.0703 17.6138C27.0703 20.9145 29.7461 23.5903 33.0469 23.5903Z" fill="#FFD215"/>
<path d="M33.0468 25.2356C31.1618 25.2427 29.3133 25.756 27.6946 26.722C27.9997 26.9948 28.3077 27.2634 28.596 27.5587C30.5108 29.5268 31.9332 31.9197 32.7472 34.5422C33.026 35.4055 33.2316 36.2908 33.3618 37.1887H42.1874C42.5604 37.1887 42.918 37.0406 43.1818 36.7768C43.4455 36.5131 43.5936 36.1554 43.5936 35.7825C43.5907 32.9862 42.4785 30.3053 40.5012 28.328C38.524 26.3507 35.8431 25.2386 33.0468 25.2356Z" fill="#FFD215"/>
</svg>
